<?xml version="1.0" standalone="no"?>
<!DOCTYPE svg PUBLIC "-//W3C//DTD SVG 20010904//EN"
 "http://www.w3.org/TR/2001/REC-SVG-20010904/DTD/svg10.dtd">
<svg version="1.0" xmlns="http://www.w3.org/2000/svg"
 width="474.000000pt" height="527.000000pt" viewBox="0 0 474.000000 527.000000"
 preserveAspectRatio="xMidYMid meet">

<g transform="translate(0.000000,527.000000) scale(0.100000,-0.100000)"
fill="#000000" stroke="none">
<path d="M2784 5060 c-45 -18 -104 -113 -104 -169 0 -14 6 -57 14 -94 l14 -68
-36 -34 c-22 -20 -59 -40 -92 -50 -30 -8 -76 -22 -102 -29 l-47 -14 -6 62 c-3
33 -4 72 -3 85 3 33 47 57 131 72 78 14 104 38 92 86 -15 61 -164 143 -260
143 -39 0 -93 -33 -105 -64 -9 -24 -11 -24 -92 -20 -46 3 -107 7 -137 10 -62
7 -116 -6 -156 -38 -97 -76 -80 -278 24 -278 22 0 41 -27 46 -69 2 -14 5 -33
7 -41 2 -9 -21 -23 -67 -42 -38 -16 -80 -39 -93 -51 -30 -28 -77 -111 -93
-164 -13 -45 -33 -55 -53 -28 -8 11 -39 16 -113 20 -98 4 -102 4 -120 -20
l-18 -24 -110 24 c-185 40 -227 52 -323 94 -105 46 -120 49 -153 22 -22 -17
-24 -27 -23 -93 2 -135 50 -201 204 -279 l91 -45 -20 -25 c-28 -36 -35 -72
-21 -113 17 -53 52 -76 116 -76 30 0 54 -3 54 -7 0 -5 -9 -35 -20 -67 -25 -75
-26 -146 -1 -194 25 -49 87 -107 133 -126 20 -9 39 -20 43 -26 3 -5 29 -10 56
-10 56 0 64 -10 70 -90 l4 -45 -62 -7 c-168 -18 -293 -146 -293 -299 0 -33 -8
-66 -25 -99 -31 -61 -36 -131 -12 -158 16 -18 15 -21 -21 -73 -75 -108 -130
-283 -111 -352 16 -58 68 -117 154 -174 44 -29 89 -59 100 -67 15 -10 20 -26
22 -71 3 -92 13 -132 38 -159 27 -30 47 -33 65 -11 7 8 23 15 36 15 12 0 26 5
29 10 9 15 85 -103 85 -132 0 -4 -156 -8 -347 -8 -356 0 -474 9 -616 46 -74
19 -83 25 -91 65 -21 106 -177 121 -220 22 -9 -21 -26 -51 -38 -66 -19 -23
-23 -40 -22 -90 1 -68 17 -108 61 -148 83 -76 150 -88 223 -39 103 69 204 80
856 95 l260 6 12 -26 c17 -36 17 -37 -28 -93 -52 -65 -90 -147 -90 -195 0 -24
15 -68 40 -119 46 -94 50 -124 18 -139 -26 -11 -10 -9 152 16 315 50 420 63
420 51 0 -2 -13 -33 -30 -68 -16 -34 -30 -70 -30 -78 0 -22 -58 -188 -82 -238
-14 -26 -31 -45 -45 -48 -13 -4 -29 -14 -36 -24 -17 -25 -73 -56 -124 -69 -60
-16 -85 -40 -86 -83 -2 -65 59 -109 148 -110 38 0 63 6 87 21 18 11 63 35 100
52 57 27 69 37 79 66 6 19 8 50 5 69 -8 42 21 96 108 202 130 156 129 155 162
279 5 19 106 83 131 83 32 0 29 -8 -18 -65 -55 -66 -90 -143 -96 -214 -4 -45
-2 -61 12 -74 43 -43 152 -1 209 81 23 34 32 40 47 32 23 -13 85 -13 109 0 10
5 75 64 143 130 68 66 136 129 151 141 29 22 69 28 381 48 l130 8 -157 1 -156
2 -31 31 c-54 53 -55 61 -17 126 31 53 35 67 41 168 4 61 13 143 22 184 15 78
82 244 107 270 22 21 126 0 189 -39 26 -16 54 -30 61 -30 8 0 19 -6 25 -14 15
-17 -24 -83 -107 -183 -44 -52 -59 -64 -105 -77 -53 -15 -55 -17 -75 -73 -20
-56 -26 -83 -23 -111 1 -18 79 -52 119 -52 64 0 114 46 141 131 9 26 34 55 94
105 148 125 207 198 207 259 0 16 -13 40 -36 63 -20 20 -48 57 -62 82 -14 25
-63 81 -109 125 -78 77 -82 82 -77 116 7 44 -12 90 -60 147 -37 46 -45 77 -23
104 10 13 149 62 437 155 97 31 171 44 303 52 95 6 144 14 161 24 37 25 66 95
66 160 0 49 -4 61 -32 92 -59 67 -156 97 -190 58 -8 -10 -26 -38 -40 -63 -44
-77 -119 -130 -258 -184 -52 -21 -122 -48 -155 -61 -203 -80 -298 -115 -302
-111 -3 2 0 26 5 52 10 45 7 64 -17 104 -5 8 -16 32 -25 53 -11 27 -28 43 -61
59 -30 15 -45 28 -45 41 0 10 -13 49 -28 85 -16 37 -37 110 -47 164 -16 85
-17 104 -5 166 28 152 -23 251 -151 292 -24 7 -48 17 -52 21 -5 4 1 41 12 83
15 56 18 82 11 96 -5 10 -9 48 -9 85 1 53 7 78 30 121 21 40 26 60 20 77 -10
27 -43 33 -72 13 -16 -11 -27 -12 -40 -5 -18 9 -18 12 3 62 11 28 27 75 35
102 19 64 28 73 51 52 12 -11 36 -17 64 -17 39 0 50 5 72 31 38 44 36 101 -4
141 -28 28 -35 30 -85 26 -49 -4 -55 -2 -61 16 -3 12 -32 46 -64 76 l-58 55
54 93 c58 100 60 105 43 184 -16 71 -63 119 -141 142 -60 17 -140 20 -174 6z
m182 -40 c13 -5 24 -15 24 -22 0 -10 -2 -10 -9 0 -10 16 -114 18 -154 3 -15
-6 -31 -10 -35 -9 -4 1 -17 -3 -29 -10 -13 -7 -23 -11 -23 -8 0 12 47 54 65
59 26 7 130 -1 161 -13z m-522 -74 c42 -39 76 -72 76 -76 0 -3 -18 -11 -40
-18 -37 -11 -43 -10 -70 10 -16 12 -32 30 -36 40 -3 11 -21 26 -40 35 -19 9
-34 22 -34 29 0 14 49 56 60 52 4 -2 42 -34 84 -72z m100 26 c51 -28 82 -64
71 -82 -12 -19 -30 -9 -100 56 -75 70 -67 77 29 26z m442 2 c66 -35 83 -51 77
-75 -7 -25 -11 -24 -56 7 -24 16 -48 24 -65 22 l-27 -4 28 -12 c28 -12 39 -26
12 -16 -8 4 -15 1 -15 -6 0 -8 9 -11 25 -8 13 3 22 2 20 -3 -3 -4 3 -10 14
-14 21 -6 19 -23 -13 -99 -14 -34 -19 -38 -43 -31 -24 5 -26 5 -12 -7 9 -7 19
-26 22 -43 4 -16 4 -25 1 -18 -3 7 -11 10 -19 7 -7 -3 -23 -1 -34 5 -27 15
-17 44 13 36 20 -6 20 -5 2 6 -16 10 -22 8 -34 -7 -14 -18 -14 -18 -8 -1 3 10
6 23 6 28 0 4 7 6 15 3 15 -6 20 14 17 59 -1 10 2 16 7 13 10 -6 25 43 16 52
-3 3 -5 0 -5 -7 0 -7 -4 -10 -8 -7 -10 6 -35 -60 -28 -72 3 -5 -6 -14 -20 -21
-29 -13 -37 -14 -31 -3 3 4 0 16 -4 27 -9 19 -9 19 -5 -2 2 -12 -2 -24 -9 -27
-10 -3 -11 2 -5 22 4 15 12 26 18 25 6 -1 22 17 36 42 18 30 31 42 41 39 17
-7 21 21 5 31 -6 4 -8 10 -6 14 7 11 -35 31 -58 28 -10 -2 -24 -11 -30 -19 -9
-12 -17 -13 -29 -7 -22 13 -53 -7 -68 -43 -13 -33 -29 -37 -29 -7 0 49 42 82
135 105 74 18 97 17 151 -12z m41 11 c8 -9 13 -18 11 -21 -3 -2 -13 5 -23 16
-21 23 -11 27 12 5z m-945 -77 c-9 -16 -31 -45 -49 -63 l-32 -33 67 -8 c37 -4
59 -9 50 -11 -12 -3 -18 -13 -17 -31 1 -19 3 -21 6 -9 4 14 11 17 26 13 12 -3
28 -6 36 -6 10 0 12 -14 8 -67 -4 -43 -3 -59 2 -43 5 14 10 41 11 60 l3 35 7
-40 7 -40 2 37 c1 44 6 47 49 41 36 -6 40 -22 21 -96 -10 -41 -12 -43 -44 -39
-25 3 -35 10 -38 26 -4 17 -5 16 -6 -6 -1 -18 5 -28 17 -31 13 -4 11 -5 -5 -6
-14 -1 -23 -8 -24 -18 -1 -17 -2 -17 -6 0 -2 9 -9 17 -14 17 -6 0 -8 -4 -5 -9
3 -5 3 -23 0 -40 -5 -24 -12 -31 -30 -31 -36 0 -33 -37 4 -43 23 -3 22 -4 -9
-6 -19 0 -42 5 -51 12 -24 18 -58 122 -56 170 1 37 2 38 5 10 4 -27 9 -33 29
-33 13 0 24 4 24 10 0 5 -6 7 -12 5 -19 -7 -11 120 8 135 11 10 12 2 7 -52 -7
-83 4 -105 57 -110 22 -2 40 0 40 4 0 5 -16 8 -35 8 l-35 0 -2 58 c-1 55 -1
56 -8 17 -6 -30 -7 -23 -4 26 4 62 2 67 -19 73 -47 12 -58 8 -52 -21 4 -25 3
-24 -11 6 -12 27 -14 51 -9 102 8 74 20 85 77 66 l28 -9 -18 -30z m793 31 c-4
-5 -1 -9 4 -9 6 0 11 -4 11 -10 0 -5 -9 -10 -20 -10 -12 0 -20 7 -20 18 0 14
-2 15 -10 2 -5 -8 -10 -10 -10 -4 0 15 6 19 30 21 11 1 18 -2 15 -8z m-931
-86 c-9 -142 -13 -163 -34 -163 -38 0 -59 86 -40 156 11 40 48 84 71 84 4 0 5
-35 3 -77z m355 59 c19 -9 38 -27 42 -40 8 -22 8 -22 -19 -8 -46 24 -155 48
-190 42 -29 -4 -32 -3 -22 9 18 22 145 19 189 -3z m485 -28 c10 -27 7 -59 -9
-80 -13 -16 -16 -17 -25 -4 -14 21 -13 73 2 88 16 16 25 15 32 -4z m54 -2
c-19 -22 -37 -83 -31 -100 5 -11 3 -13 -7 -7 -10 6 -12 4 -6 -11 4 -10 9 -32
12 -49 3 -28 3 -28 -5 -5 -8 21 -9 22 -10 5 -1 -17 -3 -17 -11 -5 -6 9 -6 18
0 24 6 6 10 15 10 21 0 5 -7 1 -16 -10 -25 -34 -49 -8 -51 56 -1 46 0 49 6 19
16 -79 38 -73 72 19 12 33 27 58 35 58 11 0 11 -3 2 -15z m205 -9 c2 -5 -3
-19 -10 -33 l-15 -25 6 27 c4 16 1 28 -7 31 -7 3 -5 6 5 6 9 1 19 -2 21 -6z
m-916 -19 c-3 -3 -12 -4 -19 -1 -8 3 -5 6 6 6 11 1 17 -2 13 -5z m953 -34 c-6
-11 -13 -20 -16 -20 -2 0 0 9 6 20 6 11 13 20 16 20 2 0 0 -9 -6 -20z m-774
-42 c57 -7 94 -16 94 -23 0 -15 -29 -53 -30 -38 0 6 5 15 10 18 21 13 9 25
-24 25 l-33 0 -17 -82 -16 -83 22 -17 c13 -9 24 -15 26 -14 1 2 9 34 16 72 11
54 14 61 16 34 1 -19 4 -29 7 -22 10 24 24 11 21 -20 -3 -34 -28 -52 -29 -21
0 10 -8 -5 -18 -33 -17 -50 -47 -100 -75 -123 -16 -13 -116 -5 -116 10 0 5 13
6 29 3 26 -5 30 -2 51 41 12 25 24 44 27 41 3 -2 -1 -14 -7 -26 -6 -12 -9 -24
-6 -27 2 -3 12 11 20 31 8 20 20 36 25 36 14 0 14 -6 -3 -39 -19 -36 -46 -59
-46 -40 0 11 -2 11 -10 -1 -6 -10 -4 -17 7 -24 13 -7 22 -2 40 20 49 59 49
102 1 90 -10 -2 -18 0 -18 4 0 5 -8 11 -17 13 -14 4 -13 5 4 6 22 1 33 35 46
139 5 40 5 40 -93 51 -45 5 -60 9 -37 10 21 0 81 -4 133 -11z m696 -20 c-8 -8
-9 -4 -5 13 4 13 8 18 11 10 2 -7 -1 -18 -6 -23z m49 9 c-10 -9 -11 -8 -5 6 3
10 9 15 12 12 3 -3 0 -11 -7 -18z m-1001 9 c0 -3 -4 -8 -10 -11 -5 -3 -10 -1
-10 4 0 6 5 11 10 11 6 0 10 -2 10 -4z m-50 -26 c0 -11 -4 -20 -10 -20 -5 0
-10 9 -10 20 0 11 5 20 10 20 6 0 10 -9 10 -20z m360 -12 c0 -7 -4 -19 -9 -26
-7 -11 -10 -10 -15 3 -10 26 -7 35 9 35 8 0 15 -6 15 -12z m502 -14 c-3 -16
-9 -21 -20 -17 -11 5 -13 3 -7 -8 5 -8 4 -11 0 -6 -10 8 -16 38 -10 47 2 3 12
6 22 6 15 0 18 -6 15 -22z m169 3 c-10 -9 -11 -8 -5 6 3 10 9 15 12 12 3 -3 0
-11 -7 -18z m-42 -66 c-14 -19 -27 -27 -37 -23 -10 3 -13 1 -8 -6 5 -8 -3 -12
-26 -11 -25 1 -27 3 -10 6 16 3 22 9 18 20 -5 12 -1 14 16 10 14 -4 29 0 40
10 22 20 23 33 3 33 -16 0 -20 12 -8 23 3 4 12 -2 20 -13 12 -17 11 -23 -8
-49z m-228 27 c24 -62 48 -88 80 -88 l30 0 -18 -24 c-10 -13 -34 -32 -53 -42
l-35 -18 30 -6 30 -6 -42 -22 c-55 -29 -66 -28 -97 9 -29 34 -36 75 -11 65 12
-4 15 3 15 32 0 35 37 132 51 132 4 0 12 -15 20 -32z m-761 0 c0 -13 -4 -30
-9 -37 -8 -12 -11 -9 -16 11 -7 28 -1 48 16 48 5 0 9 -10 9 -22z m875 -8 c3
-5 2 -10 -4 -10 -5 0 -13 5 -16 10 -3 6 -2 10 4 10 5 0 13 -4 16 -10z m-45
-10 c-13 -9 -13 -10 0 -11 8 -1 18 -1 23 0 4 0 7 -3 7 -9 0 -15 -15 -12 -40 8
l-22 18 23 1 c19 2 20 0 9 -7z m66 -9 c-4 -5 -1 -11 6 -13 7 -3 3 -7 -9 -10
-23 -6 -28 10 -8 24 14 10 17 10 11 -1z m-580 -69 c-12 -11 -17 7 -9 34 l8 29
3 -28 c2 -16 1 -31 -2 -35z m21 16 c-3 -7 -5 -2 -5 12 0 14 2 19 5 13 2 -7 2
-19 0 -25z m248 -8 c-27 -12 -43 -12 -25 0 8 5 22 9 30 9 10 0 8 -3 -5 -9z
m-337 -35 c7 -6 -11 -55 -24 -65 -21 -18 -34 -2 -34 42 0 39 1 40 27 33 16 -4
29 -8 31 -10z m247 5 c-3 -5 -11 -10 -16 -10 -6 0 -7 5 -4 10 3 6 11 10 16 10
6 0 7 -4 4 -10z m-460 -77 c18 -43 16 -48 -13 -27 -21 15 -29 44 -15 57 10 11
12 9 28 -30z m-73 -15 c-7 -7 -12 -8 -12 -2 0 14 12 26 19 19 2 -3 -1 -11 -7
-17z m32 -3 c3 -9 0 -15 -9 -15 -9 0 -12 6 -9 15 4 8 7 15 9 15 2 0 5 -7 9
-15z m-90 -8 c-7 -18 20 -78 52 -116 14 -17 21 -31 16 -31 -10 0 -64 80 -75
110 -4 10 -6 9 -6 -6 -1 -11 13 -42 30 -68 16 -27 28 -51 25 -53 -9 -9 -66 90
-66 115 0 13 5 32 10 43 12 21 22 26 14 6z m660 -27 c84 -64 100 -84 85 -108
-12 -19 -15 -18 -88 35 -42 31 -79 59 -83 62 -8 7 18 51 29 51 3 0 29 -18 57
-40z m511 20 c-20 -22 -75 -41 -115 -39 -14 1 -2 6 26 11 29 5 60 18 70 28 25
25 42 25 19 0z m-1089 -101 c21 -21 33 -39 28 -39 -28 0 -97 101 -87 127 6 14
9 11 14 -15 4 -19 24 -51 45 -73z m411 82 c30 -16 262 -187 263 -193 0 -11
-94 -10 -124 2 -30 11 -116 98 -116 116 0 7 -23 26 -50 43 -53 33 -59 56 -12
45 15 -4 32 -9 39 -13z m856 1 c9 -8 17 -29 17 -45 0 -29 -1 -30 -15 -11 -17
22 -20 12 -4 -17 7 -15 7 -24 -1 -34 -10 -12 -18 -11 -53 6 -45 23 -77 48 -77
59 0 4 9 19 21 34 17 21 28 26 57 25 21 -1 45 -9 55 -17z m-1190 -40 c11 -9
37 -43 59 -75 22 -32 51 -62 64 -68 24 -8 24 -10 9 -25 -20 -20 -43 -10 -101
45 -22 20 -49 43 -60 51 -32 24 -87 98 -80 109 8 12 82 -12 109 -37z m-195
-61 c8 -14 25 -36 36 -48 10 -13 17 -25 14 -28 -9 -10 -64 67 -77 108 -7 21
-9 45 -5 55 6 12 9 7 12 -22 2 -21 11 -51 20 -65z m453 63 c19 -14 40 -29 47
-33 19 -11 -15 -94 -34 -87 -8 3 -14 -1 -14 -9 0 -11 -12 -15 -44 -15 -39 0
-48 5 -95 54 -67 72 -72 100 -8 52 32 -24 66 -40 119 -56 23 -7 26 -6 18 8 -5
9 -13 31 -18 47 -6 17 -13 38 -17 48 -10 24 5 21 46 -9z m484 -15 l7 -40 71 5
c55 4 63 3 37 -4 -37 -9 -80 -13 -141 -11 -33 1 -119 53 -119 72 0 10 33 16
92 18 l46 1 7 -41z m-895 -70 c17 -24 19 -30 6 -20 -22 18 -56 84 -56 108 1
10 7 2 14 -18 7 -20 23 -52 36 -70z m998 94 c-16 -2 -40 -2 -55 0 -16 2 -3 4
27 4 30 0 43 -2 28 -4z m-1061 -88 c12 -22 30 -49 42 -59 23 -21 31 -56 9 -38
-7 5 -35 13 -63 16 -84 12 -88 14 -81 49 3 17 18 51 33 76 26 44 27 45 33 21
4 -14 16 -43 27 -65z m432 54 c18 -53 15 -59 -21 -47 -18 6 -44 18 -57 27
l-24 15 39 17 c52 23 50 24 63 -12z m811 23 c0 -10 -89 -42 -115 -41 -11 0 9
11 45 24 36 12 66 23 68 24 1 0 2 -3 2 -7z m-2128 -69 c66 -33 106 -77 153
-168 46 -87 37 -111 -21 -58 -224 211 -225 213 -219 233 8 26 21 25 87 -7z
m2213 10 c36 -17 46 -33 21 -33 -15 0 -77 49 -64 50 4 0 23 -8 43 -17z m-702
-114 c14 -34 14 -36 -2 -32 -10 2 -34 -2 -54 -11 l-37 -15 0 27 c0 15 -5 34
-10 42 -7 11 -10 4 -10 -27 0 -24 -4 -43 -10 -43 -5 0 -10 10 -10 22 0 12 -7
30 -17 40 -14 15 -14 18 -1 18 20 0 45 29 53 61 l7 27 38 -37 c21 -20 45 -52
53 -72z m577 101 c-26 -16 -121 -41 -143 -37 -16 2 -10 6 18 11 22 4 58 14 80
21 48 16 65 18 45 5z m-885 -20 c10 -11 16 -20 13 -20 -3 0 -13 9 -23 20 -10
11 -16 20 -13 20 3 0 13 -9 23 -20z m619 -12 c-4 -7 -16 -23 -27 -35 -13 -14
-18 -31 -15 -47 4 -19 0 -27 -14 -32 -11 -3 -21 -4 -24 -2 -7 7 17 71 38 101
19 26 56 40 42 15z m38 -13 c7 -7 -52 -75 -64 -75 -17 0 -7 28 18 54 27 26 36
30 46 21z m-798 -27 c9 -12 16 -18 16 -12 0 5 -5 15 -12 22 -9 9 -9 12 -1 12
14 0 43 -39 43 -58 0 -12 -3 -12 -17 -1 -15 13 -15 12 -5 -8 13 -24 1 -39 -24
-29 -9 3 -12 1 -9 -4 10 -16 -31 -11 -45 5 -7 8 -9 15 -5 15 4 0 2 6 -4 14
-19 22 6 61 41 65 4 1 14 -9 22 -21z m-510 -8 c27 -10 32 -25 18 -48 -7 -10
-16 -9 -45 3 -40 17 -40 16 -31 39 7 18 22 20 58 6z m72 -15 c9 -36 -26 -115
-52 -115 -3 0 -2 6 3 13 5 6 10 30 12 52 4 75 24 101 37 50z m59 4 c11 -17 -1
-21 -15 -4 -8 9 -8 15 -2 15 6 0 14 -5 17 -11z m510 -24 c22 -18 15 -17 -27 4
-16 8 -28 18 -28 23 0 10 25 -2 55 -27z m763 8 c11 -16 22 -38 26 -50 14 -44
-66 -89 -113 -64 -17 10 -43 3 -153 -37 -197 -73 -227 -82 -280 -82 l-48 0 0
74 0 74 45 21 c51 24 97 26 205 10 97 -15 145 -3 186 46 25 30 35 35 71 35 34
0 45 -5 61 -27z m-2045 -52 c-6 -9 -13 6 -18 40 l-6 34 14 -35 c7 -19 12 -37
10 -39z m529 26 c19 -29 9 -43 -30 -39 -32 3 -39 8 -48 36 l-10 33 40 -9 c22
-5 44 -14 48 -21z m-435 -44 c41 -38 93 -84 115 -104 50 -45 38 -56 -25 -23
-75 38 -116 73 -148 128 -50 88 -40 88 58 -1z m1170 41 c-7 -7 -37 7 -37 17 0
6 9 5 21 -1 11 -7 19 -14 16 -16z m144 0 c2 2 5 -12 7 -32 l2 -37 -20 33 c-11
18 -20 40 -20 50 1 16 1 16 14 0 7 -10 15 -16 17 -14z m-5 -86 c8 -44 24 -41
25 5 l1 32 10 -35 c11 -39 3 -109 -16 -135 -16 -22 -5 -109 24 -197 11 -34 20
-73 20 -88 0 -31 43 -135 60 -145 15 -9 4 -54 -18 -79 -27 -31 -94 -76 -103
-70 -14 9 -10 44 5 44 8 0 31 16 52 36 l39 36 -41 -31 c-23 -17 -44 -31 -47
-31 -7 0 -39 141 -33 148 3 3 -2 17 -11 31 -15 22 -18 53 -20 184 -2 87 -7
166 -13 177 -5 10 -10 29 -10 41 0 12 -7 31 -17 41 -23 25 -9 34 23 14 29 -20
29 -20 37 15 4 16 1 33 -8 45 -8 10 -14 28 -14 39 0 34 48 -34 55 -77z m-146
61 c0 -4 -7 -6 -15 -3 -8 4 -15 10 -15 15 0 4 7 6 15 3 8 -4 15 -10 15 -15z
m-410 -10 c102 -21 130 -32 130 -50 0 -11 -66 -3 -130 16 -106 30 -130 39
-130 47 0 12 12 10 130 -13z m467 2 c10 -17 8 -19 -18 -25 -23 -4 -31 -12 -35
-36 -7 -33 -6 -32 -28 -24 -23 9 -20 25 15 67 34 42 49 46 66 18z m-92 -29
c-3 -3 -11 0 -18 7 -9 10 -8 11 6 5 10 -3 15 -9 12 -12z m-590 -40 c-2 -7 -8
-48 -11 -91 l-7 -78 -24 23 c-23 22 -24 24 -8 53 8 17 11 31 6 31 -8 0 -41 81
-41 101 0 3 20 -1 45 -10 29 -10 43 -21 40 -29z m-117 10 c7 -9 17 -33 23 -54
14 -53 -1 -78 -47 -78 -19 0 -50 -6 -69 -14 -31 -13 -37 -13 -72 5 -20 10 -45
19 -55 19 -22 0 -22 -1 -2 63 27 85 35 90 129 82 56 -5 84 -12 93 -23z m685
22 c6 -7 -13 -54 -22 -54 -14 1 -29 16 -35 38 -6 19 -4 22 22 22 16 0 31 -3
35 -6z m-493 -59 c25 -14 35 -24 23 -20 -15 4 -23 1 -26 -12 -4 -15 -5 -15 -6
3 -1 22 -19 44 -37 44 -13 0 -29 -146 -18 -173 3 -9 15 -17 25 -17 16 0 19 8
21 63 l2 62 5 -70 c3 -38 4 -88 1 -110 l-4 -40 -6 40 c-3 28 -10 41 -24 43
-16 4 -18 -1 -12 -35 5 -34 4 -35 -6 -13 -21 47 -11 308 10 273 4 -6 27 -23
52 -38z m367 39 c-3 -3 -12 -4 -19 -1 -8 3 -5 6 6 6 11 1 17 -2 13 -5z m873
-13 c0 -5 -20 -19 -45 -31 -43 -21 -85 -65 -85 -89 0 -16 -44 -100 -72 -137
-34 -46 -129 -124 -150 -124 -10 0 -35 15 -55 33 -31 29 -37 42 -44 97 -5 35
-7 65 -5 67 2 2 20 7 40 10 31 5 36 3 36 -14 0 -10 -5 -24 -12 -31 -6 -6 -9
-15 -5 -18 3 -4 16 13 27 38 20 40 55 71 120 106 14 7 32 19 40 26 8 8 44 25
80 39 92 36 130 44 130 28z m313 -17 c6 -6 -29 -84 -37 -84 -8 0 -76 73 -72
77 2 3 14 -1 26 -7 17 -9 26 -8 43 4 25 17 31 19 40 10z m-1592 -61 c-9 -15
-10 -12 -10 17 0 29 1 32 10 18 7 -12 7 -24 0 -35z m593 31 c31 -21 44 -83 39
-176 -5 -81 4 -148 42 -312 12 -56 13 -71 3 -78 -29 -18 -35 -7 -37 65 -3 103
-15 140 -63 186 -23 23 -45 41 -49 41 -5 0 -24 21 -44 47 -34 44 -35 47 -18
66 13 14 19 40 21 97 l4 78 41 0 c22 1 50 -6 61 -14z m-300 -26 c8 -13 6 -22
-12 -41 -30 -32 -28 -46 3 -17 28 26 31 19 14 -29 -7 -21 -16 -30 -25 -27 -10
4 -14 -4 -14 -30 0 -48 -25 -97 -73 -145 -44 -43 -46 -43 -98 -29 -40 11 -70
34 -87 67 -18 32 -14 41 5 14 16 -23 17 -23 24 -5 7 18 8 17 8 -3 1 -16 9 -23
34 -28 17 -4 41 -9 52 -12 l20 -6 -20 -9 c-15 -6 -12 -7 10 -2 42 8 56 24 21
24 -27 0 -28 2 -22 31 3 17 6 37 6 43 0 7 14 10 40 8 44 -5 51 -19 20 -47 -23
-21 -27 -44 -4 -24 14 11 44 61 44 73 0 3 -15 7 -32 9 -33 4 -33 4 4 5 l37 2
-2 54 c-2 40 3 59 16 74 18 20 18 20 -2 27 -24 7 -28 25 -6 25 7 0 19 -8 24
-17 9 -16 10 -16 11 -2 0 23 -16 27 -77 22 l-51 -5 -11 -47 -10 -46 4 48 c4
42 2 49 -17 56 -12 4 14 7 67 7 71 -1 90 -4 99 -18z m-158 -11 c4 -3 -23 -127
-28 -133 -3 -2 -19 1 -36 7 -30 10 -32 14 -32 59 0 75 6 83 54 76 22 -4 41 -8
42 -9z m314 -32 c0 -41 -19 -87 -34 -82 -6 2 -13 16 -16 32 -3 15 -14 33 -25
39 -11 6 -23 15 -26 20 -4 5 -14 6 -23 3 -10 -4 -16 -1 -16 8 0 12 15 15 70
15 l70 0 0 -35z m-211 16 c10 -6 11 -13 2 -29 -6 -11 -11 -41 -11 -66 0 -49
-7 -53 -58 -40 -22 6 -23 10 -17 58 10 79 14 86 43 86 15 0 33 -4 41 -9z m714
-22 c-18 -12 -33 -25 -33 -29 0 -4 -15 -8 -32 -9 -18 0 -42 -2 -53 -3 -15 -2
-21 4 -23 23 -3 23 0 25 25 22 15 -2 48 0 73 6 70 14 77 12 43 -10z m-623 -19
c-6 -12 -14 -19 -17 -17 -2 3 1 15 7 27 6 12 14 19 17 17 2 -3 -1 -15 -7 -27z
m1100 13 c-14 -3 -28 -10 -32 -17 -5 -7 -8 -5 -8 7 0 13 8 17 33 16 27 -2 28
-2 7 -6z m-61 -7 c-2 -2 -22 -6 -44 -9 -28 -5 -34 -4 -20 3 19 8 73 14 64 6z
m152 -15 c23 -18 24 -24 20 -132 -1 -62 -7 -122 -12 -133 -6 -14 -7 -6 -3 26
3 26 2 53 -2 60 -6 9 -11 -2 -15 -32 l-6 -45 -1 48 c-2 47 -2 47 -37 47 -31 0
-35 -3 -36 -27 l-2 -28 -4 28 c-5 31 -5 31 -56 16 -28 -8 -37 -14 -33 -26 3
-8 9 -27 12 -41 4 -21 3 -24 -5 -12 -6 8 -11 23 -11 33 0 10 -6 20 -14 23 -8
3 -13 13 -11 22 1 9 0 12 -2 5 -2 -6 -10 -14 -18 -17 -16 -6 -20 7 -30 77 -8
59 10 64 25 6 6 -23 14 -39 16 -36 10 10 -28 117 -41 117 -7 0 -23 -9 -36 -19
-23 -19 -24 -19 -5 -40 11 -12 25 -42 31 -68 11 -41 16 -48 35 -45 l22 2 -22
-18 c-21 -17 -21 -20 -7 -52 19 -46 59 -82 81 -74 11 4 15 13 11 28 -6 19 -5
20 8 4 8 -10 23 -18 33 -19 10 0 -2 -7 -29 -16 -45 -15 -48 -15 -68 3 -31 28
-46 62 -65 145 -9 40 -25 85 -36 99 -10 14 -16 33 -13 41 6 15 72 56 78 48 2
-2 14 -41 27 -86 23 -82 31 -92 60 -73 12 8 11 10 -8 10 -23 0 -33 17 -47 78
l-7 32 45 0 c27 0 47 -5 50 -12 3 -7 6 -2 7 12 2 19 5 14 15 -20 12 -43 13
-44 14 -12 1 24 6 32 19 32 28 0 42 -21 42 -62 0 -34 -3 -38 -24 -38 -15 0
-26 7 -29 18 -4 13 -5 11 -6 -5 -1 -20 4 -23 34 -23 l35 0 2 58 2 57 3 -55 c2
-30 9 -59 15 -65 7 -7 9 0 6 24 -3 19 -2 49 2 67 9 41 -12 80 -30 54 -8 -13
-10 -13 -10 2 0 9 -6 19 -12 21 -8 4 -7 6 3 6 9 1 27 -8 40 -18z m-707 -116
c4 -20 1 -17 -8 10 -8 22 -14 58 -14 80 0 39 1 38 8 -10 4 -27 10 -63 14 -80z
m-1170 96 c20 -22 31 -90 18 -110 -8 -10 -14 -11 -32 -1 -12 6 -24 9 -27 7 -3
-3 8 -12 24 -21 l28 -15 -26 -1 c-15 0 -37 9 -50 20 -23 18 -23 19 -4 20 19 1
19 2 -2 12 -15 7 -23 20 -23 37 0 31 8 44 35 59 28 16 39 15 59 -7z m36 4 c6
-8 10 -22 8 -32 -3 -14 -8 -11 -21 15 -18 32 -9 44 13 17z m199 0 c31 -15 46
-41 31 -50 -14 -8 -170 15 -170 26 0 16 45 39 78 39 18 0 46 -7 61 -15z m511
-10 c0 -25 -34 -65 -57 -65 -7 0 -10 -7 -7 -17 5 -15 4 -16 -5 -3 -9 13 -11
13 -11 -3 0 -31 30 -32 57 -1 14 17 20 21 14 9 -5 -11 -21 -31 -36 -45 -22
-21 -28 -22 -36 -10 -15 24 4 136 22 125 4 -3 13 4 19 15 15 28 40 26 40 -5z
m-251 -27 c-2 -13 0 -29 4 -35 5 -7 4 -13 -2 -13 -5 0 -14 -19 -20 -42 l-10
-43 2 44 c2 42 0 45 -33 57 l-35 13 40 -2 c35 -2 40 1 43 21 2 12 6 22 8 22 3
0 4 -10 3 -22z m141 -48 c0 -41 -4 -51 -22 -61 -20 -11 -21 -10 -11 3 7 8 16
36 19 62 4 25 8 46 10 46 2 0 4 -22 4 -50z m-376 -71 c3 -37 8 -74 11 -81 4
-9 -7 -20 -28 -30 l-34 -16 -71 67 c-68 64 -77 80 -74 126 2 19 6 20 96 11
l93 -9 7 -68z m186 71 c16 0 18 -6 13 -37 -3 -21 -9 -41 -12 -46 -13 -14 -40
18 -47 57 -6 35 -5 38 10 33 10 -4 26 -7 36 -7z m1128 -52 c17 -17 16 -98 -1
-98 -16 0 -47 51 -47 77 0 33 25 44 48 21z m196 -79 c3 -34 3 -65 0 -70 -11
-19 -26 -8 -44 34 -27 57 -26 85 3 90 12 2 25 5 28 6 3 0 9 -26 13 -60z m76
34 c0 -39 -19 -103 -30 -103 -6 0 -10 19 -10 43 0 23 -3 52 -6 65 -5 19 -2 22
20 22 22 0 26 -4 26 -27z m-966 -21 c31 -23 54 -50 62 -72 27 -74 8 -430 -22
-430 -7 0 -15 4 -19 9 -3 6 -26 13 -51 17 l-45 6 8 47 c4 25 8 93 7 151 -1
105 -9 135 -72 252 -2 3 13 14 32 23 20 10 36 21 36 26 0 16 14 10 64 -29z
m-534 -19 c0 -7 -7 -13 -15 -13 -10 0 -15 10 -15 33 1 30 1 31 15 13 8 -11 15
-26 15 -33z m1330 15 c1 -25 29 -82 30 -59 0 8 2 12 5 10 9 -9 -8 -49 -20 -49
-18 0 -55 53 -55 77 0 19 18 43 32 43 4 0 8 -10 8 -22z m-1563 -40 c30 -29 31
-32 15 -45 -15 -12 -14 -13 10 -7 36 8 45 -13 24 -55 -20 -38 -20 -88 -1 -134
18 -45 19 -47 0 -47 -8 0 -37 23 -64 50 -58 58 -70 98 -48 153 9 20 11 37 6
39 -9 3 10 78 20 78 3 0 20 -14 38 -32z m509 4 c-7 -12 -88 -50 -121 -57 -29
-5 -29 -5 -5 6 14 6 45 21 70 34 49 25 64 29 56 17z m58 -17 c-65 -49 -304
-140 -304 -116 0 4 33 15 73 25 73 19 168 61 216 95 14 11 28 17 30 15 3 -2
-4 -11 -15 -19z m921 6 c-3 -6 -11 -11 -17 -11 -6 0 -6 6 2 15 14 17 26 13 15
-4z m192 -33 c-2 -13 -4 -5 -4 17 -1 22 1 32 4 23 2 -10 2 -28 0 -40z m76 9
c7 4 6 -1 -2 -10 -7 -9 -19 -17 -26 -17 -11 0 -11 6 -2 31 10 27 12 29 15 10
2 -13 8 -19 15 -14z m-1423 3 c-14 -4 -34 -8 -45 -8 l-20 -1 20 9 c11 5 31 8
45 8 l25 0 -25 -8z m-83 -16 c-3 -3 -12 -4 -19 -1 -8 3 -5 6 6 6 11 1 17 -2
13 -5z m1313 -78 c46 -18 102 -21 131 -6 22 12 23 10 10 -22 -5 -13 -12 -31
-15 -42 -6 -17 -8 -16 -27 8 -12 15 -30 26 -45 26 -27 0 -29 -6 -14 -44 16
-44 -7 -29 -43 27 -19 28 -46 63 -61 76 -14 14 -26 32 -26 40 0 10 9 5 25 -15
14 -18 43 -39 65 -48z m-1240 49 c-19 -7 -44 -13 -55 -13 -13 0 -7 5 15 13 19
7 44 13 55 13 13 0 7 -5 -15 -13z m-220 -45 c0 -5 -12 -10 -26 -10 -14 0 -23
4 -19 10 3 6 15 10 26 10 10 0 19 -4 19 -10z m1660 -22 c0 -12 -16 -50 -35
-86 -20 -35 -34 -66 -32 -69 3 -2 28 23 57 56 48 55 77 78 87 67 6 -6 -26 -55
-64 -96 -17 -19 -30 -36 -28 -38 5 -5 57 34 91 67 13 13 27 22 30 18 10 -10
-25 -65 -58 -91 l-33 -27 48 20 c26 11 47 17 47 12 0 -11 -67 -57 -112 -75
-37 -16 -46 -32 -79 -141 -25 -86 -95 -186 -139 -200 -26 -8 -102 30 -148 75
-29 29 -41 50 -46 82 -7 42 -6 44 37 83 42 39 43 42 29 63 -8 12 -12 25 -9 29
4 3 12 -7 19 -21 12 -28 18 -28 79 -10 34 10 28 -25 -7 -47 -40 -24 -68 -62
-61 -81 4 -9 6 -9 6 2 1 24 48 68 99 94 26 13 59 38 74 54 24 27 25 32 12 43
-13 10 -14 26 -9 80 4 43 3 74 -4 88 -10 17 -9 21 5 21 33 0 60 -69 34 -85 -5
-3 -10 -11 -10 -18 0 -19 26 14 57 74 16 30 33 61 37 67 12 19 26 14 26 -10z
m-340 -1 c0 -9 -92 -68 -97 -63 -8 8 -6 10 47 40 47 27 50 28 50 23z m485 -7
c12 -5 -5 -7 -45 -3 -36 3 -67 7 -69 9 -9 8 95 2 114 -6z m-1792 -17 c-13 -2
-35 -2 -50 0 -16 2 -5 4 22 4 28 0 40 -2 28 -4z m1083 -92 c27 -27 65 -56 84
-66 79 -39 89 -73 38 -122 -42 -39 -66 -52 -90 -46 -17 5 -17 7 2 38 26 42 19
75 -25 112 -36 31 -65 81 -65 113 0 11 2 20 4 20 2 0 26 -22 52 -49z m189 30
c-3 -6 -11 -11 -17 -11 -6 0 -6 6 2 15 14 17 26 13 15 -4z m-1091 -58 c37 -74
41 -93 19 -93 -26 0 -91 119 -72 131 23 14 28 11 53 -38z m1116 22 c-7 -9 -15
-13 -17 -11 -7 7 7 26 19 26 6 0 6 -6 -2 -15z m-275 -25 c3 -5 1 -10 -4 -10
-6 0 -11 5 -11 10 0 6 2 10 4 10 3 0 8 -4 11 -10z m-106 -67 c-9 -17 -9 -27
-2 -34 6 -6 8 -20 5 -31 -4 -15 -7 -17 -13 -6 -10 16 -11 64 -2 109 6 32 6 32
15 9 6 -16 5 -32 -3 -47z m60 35 c-21 -8 -21 -8 2 -28 14 -12 18 -19 9 -18 -8
2 -14 -2 -15 -9 0 -6 -4 -15 -8 -20 -5 -4 -7 -1 -5 7 2 8 -3 14 -9 13 -7 -2
-13 2 -13 8 0 6 7 9 15 6 8 -4 17 -2 20 3 4 6 -3 10 -14 10 -16 0 -20 5 -17
23 1 12 8 22 14 22 6 0 14 3 18 8 4 4 11 2 15 -5 5 -8 1 -16 -12 -20z m58 -46
c-38 -39 -36 -69 6 -81 29 -8 30 -9 7 -10 -31 -1 -50 16 -50 45 0 24 35 74 53
74 6 0 -1 -13 -16 -28z m-874 -80 c33 -82 33 -84 2 -70 -19 8 -25 19 -25 42 0
17 -4 46 -9 64 -16 56 3 35 32 -36z m667 -32 c-20 -45 -20 -39 3 54 10 43 12
46 15 20 2 -17 -6 -50 -18 -74z m276 89 c10 -16 -17 -37 -51 -41 -20 -2 -30 2
-33 13 -5 27 69 52 84 28z m-120 -46 c-11 -11 -19 6 -11 24 8 17 8 17 12 0 3
-10 2 -21 -1 -24z m289 -13 c3 -5 1 -10 -4 -10 -6 0 -11 5 -11 10 0 6 2 10 4
10 3 0 8 -4 11 -10z m-609 -36 c55 -38 72 -60 67 -88 -5 -24 -5 -24 -37 -7
-17 10 -58 33 -91 51 -79 43 -83 48 -54 59 41 17 75 12 115 -15z m376 4 c26
-6 45 -15 42 -19 -6 -10 59 -5 76 6 5 3 10 -2 10 -13 0 -12 -11 -24 -29 -32
-16 -6 -28 -17 -27 -23 2 -7 1 -9 -1 -4 -3 4 -22 7 -43 7 -22 0 -55 7 -74 16
-27 14 -35 24 -38 51 -4 31 -2 34 16 28 12 -4 42 -11 68 -17z m-832 -26 c0
-15 -2 -15 -10 -2 -13 20 -13 33 0 25 6 -3 10 -14 10 -23z m740 2 c0 -8 -4
-12 -10 -9 -5 3 -10 10 -10 16 0 5 5 9 10 9 6 0 10 -7 10 -16z m918 -26 c6
-24 13 -60 16 -81 3 -21 14 -57 25 -80 11 -23 23 -55 27 -71 7 -28 6 -28 -27
-21 -19 4 -57 8 -86 8 -33 0 -54 5 -57 13 -5 12 15 144 33 218 17 68 54 75 69
14z m-1272 -44 c101 -60 120 -81 36 -39 -27 14 -65 28 -84 31 -18 4 -46 13
-61 21 -23 12 -26 17 -16 29 6 8 16 14 21 14 5 0 52 -25 104 -56z m-181 6 c33
-22 66 -40 75 -40 44 -1 159 -54 209 -96 17 -14 31 -21 31 -15 0 6 18 11 40
11 37 0 40 2 40 29 0 36 30 132 40 126 4 -3 10 -21 13 -42 3 -21 8 -45 12 -55
4 -11 0 -18 -16 -23 -16 -5 -18 -9 -8 -15 7 -5 17 -6 21 -4 5 3 7 2 6 -3 -2
-4 7 -24 19 -43 12 -19 24 -47 28 -62 8 -31 -9 -68 -32 -68 -9 0 -14 -3 -11
-6 4 -3 35 2 70 11 l65 16 51 -33 c36 -23 50 -38 48 -51 -2 -9 -1 -15 4 -12
10 6 20 -148 9 -159 -14 -16 -140 56 -194 111 -29 28 -62 72 -75 96 l-24 45
-74 6 c-92 9 -109 17 -222 112 -75 63 -90 80 -85 98 l6 21 -18 -21 c-13 -16
-34 -23 -75 -27 -66 -6 -76 7 -32 42 15 12 23 21 18 21 -4 0 -21 -12 -36 -27
-26 -25 -28 -25 -28 -7 0 12 11 27 25 34 14 7 23 15 21 17 -7 7 -66 -32 -70
-47 -2 -8 -3 2 -1 23 1 21 4 40 7 42 5 5 71 34 78 34 3 0 32 -17 65 -39z
m-238 -18 c6 -4 14 -19 18 -33 5 -22 0 -31 -31 -57 -40 -33 -55 -34 -47 -2 4
15 0 20 -16 20 -11 0 -21 -4 -21 -10 0 -5 8 -7 18 -4 9 3 -7 -7 -37 -21 -30
-14 -51 -28 -47 -32 7 -7 -32 -53 -45 -53 -4 0 -5 14 -2 31 4 28 3 30 -19 24
-35 -12 -52 -45 -22 -45 8 0 13 4 9 9 -3 5 -2 12 2 14 5 3 9 -9 10 -26 1 -28
-2 -32 -25 -34 l-27 -1 25 14 c31 16 19 18 -31 3 -32 -10 -40 -9 -54 5 -21 21
-45 21 -45 -1 0 -9 -2 -14 -5 -11 -4 3 -3 17 0 31 6 21 15 27 48 32 59 10 182
70 229 112 14 12 81 41 98 42 3 1 10 -3 17 -7z m613 -7 c0 -33 -29 -85 -48
-85 -32 0 -32 10 1 56 32 46 47 55 47 29z m366 -11 c-4 -9 -9 -15 -11 -12 -3
3 -3 13 1 22 4 9 9 15 11 12 3 -3 3 -13 -1 -22z m-60 -12 c-17 -16 -18 -16 -5
5 7 12 15 20 18 17 3 -2 -3 -12 -13 -22z m-46 15 c0 -2 -10 -12 -22 -23 l-23
-19 19 23 c18 21 26 27 26 19z m-55 -47 c-3 -5 -11 -10 -16 -10 -6 0 -7 5 -4
10 3 6 11 10 16 10 6 0 7 -4 4 -10z m124 -6 c-7 -8 -31 -25 -53 -36 -49 -25
-44 -17 15 22 52 34 56 35 38 14z m-909 -39 c0 -32 -2 -35 -24 -29 -18 4 -27
1 -35 -15 -6 -11 -10 -24 -10 -28 1 -4 0 -15 -4 -23 -3 -8 -8 -22 -10 -30 -3
-8 -6 6 -6 32 -1 26 -5 50 -11 53 -5 3 -10 12 -10 18 0 9 2 9 8 0 5 -8 21 -1
52 22 25 19 46 34 48 34 1 1 2 -15 2 -34z m740 25 c-20 -13 -33 -13 -25 0 3 6
14 10 23 10 15 0 15 -2 2 -10z m45 -15 c-65 -31 -84 -31 -25 0 25 12 52 23 60
23 8 0 -7 -10 -35 -23z m1984 -25 c22 -11 48 -31 59 -45 21 -27 38 -82 29 -92
-3 -3 -45 23 -94 58 -48 34 -89 63 -91 64 -1 1 0 10 4 19 8 22 46 20 93 -4z
m-2919 -4 c0 -2 -7 -7 -16 -10 -8 -3 -12 -2 -9 4 6 10 25 14 25 6z m945 -6
c-3 -5 -12 -10 -18 -10 -7 0 -6 4 3 10 19 12 23 12 15 0z m-945 -20 c-8 -5
-19 -10 -25 -10 -5 0 -3 5 5 10 8 5 20 10 25 10 6 0 3 -5 -5 -10z m24 -89 c-4
-3 -9 0 -11 7 -6 15 -34 16 -68 0 -22 -10 -28 -9 -37 3 -7 10 -8 6 -4 -16 5
-28 5 -28 -6 -7 -9 18 -8 26 7 42 10 11 25 20 34 20 9 1 32 9 51 20 l35 18 3
-40 c2 -22 0 -43 -4 -47z m129 60 c3 -15 3 -41 -2 -57 -9 -33 -40 -46 -42 -17
-3 27 2 87 8 96 10 17 31 5 36 -22z m737 25 c0 -2 -7 -7 -16 -10 -8 -3 -12 -2
-9 4 6 10 25 14 25 6z m-822 -123 c7 -12 12 -28 11 -35 -2 -35 -37 73 -37 112
l1 45 6 -50 c4 -27 12 -60 19 -72z m2835 28 l87 -65 -18 -30 c-22 -38 -49 -45
-185 -47 l-111 -1 -9 28 c-6 16 -14 34 -19 40 -6 8 7 23 39 46 26 19 62 50 78
70 17 19 35 32 41 29 6 -3 50 -35 97 -70z m-2399 11 c-31 -4 -30 -5 -40 32
l-7 29 37 -29 36 -29 -26 -3z m-339 -47 c-23 -46 -51 -47 -71 0 -7 19 -14 42
-13 52 1 10 7 0 13 -22 7 -22 20 -41 28 -43 20 -4 48 34 49 68 2 23 2 23 6 3
2 -12 -3 -38 -12 -58z m-348 59 c-3 -4 -24 -6 -47 -6 -23 1 -40 -4 -40 -10 0
-6 -3 -9 -6 -5 -14 14 11 27 53 27 26 0 44 -3 40 -6z m63 -9 c0 -17 -46 -39
-67 -31 -22 9 -14 23 20 34 45 14 47 14 47 -3z m2011 -6 c35 -12 73 -30 84
-41 20 -20 20 -20 -39 -15 -33 3 -62 10 -65 15 -3 5 -24 21 -46 35 -50 34 -26
36 66 6z m-1867 -19 c15 -17 31 -41 36 -54 7 -20 4 -25 -26 -40 -50 -23 -61
-20 -83 22 -34 68 -35 79 -4 90 42 16 48 14 77 -18z m-244 1 c1 8 7 3 15 -11
17 -30 19 -53 2 -25 -7 11 -19 20 -27 20 -8 0 -16 9 -18 20 -3 20 -3 20 13 1
11 -15 15 -16 15 -5z m-20 -60 c-1 -13 -30 34 -30 48 0 9 7 3 15 -13 8 -15 15
-31 15 -35z m1973 52 c-7 -2 -19 -2 -25 0 -7 3 -2 5 12 5 14 0 19 -2 13 -5z
m-1832 -30 c5 -16 16 -41 24 -58 13 -28 13 -30 -13 -41 -25 -10 -29 -9 -50 25
-50 78 -49 100 6 101 16 0 26 -8 33 -27z m290 -91 c-15 -86 -36 -134 -82 -187
-34 -39 -53 -43 -81 -18 -17 16 -17 17 12 34 16 10 36 16 43 13 7 -2 20 3 29
13 20 24 59 131 57 157 -1 12 2 41 6 66 8 41 9 42 18 22 8 -17 7 -46 -2 -100z
m-261 75 c0 -5 -4 -5 -10 -2 -5 3 -10 14 -10 23 0 15 2 15 10 2 5 -8 10 -19
10 -23z m744 12 c6 -5 2 -25 -9 -49 -14 -31 -23 -40 -39 -38 -18 3 -21 11 -24
55 l-3 53 33 -6 c18 -4 37 -10 42 -15z m-334 -6 c78 -52 130 -97 130 -114 0
-25 -12 -24 -36 2 -10 12 -32 28 -49 36 -40 21 -105 72 -105 84 0 15 33 10 60
-8z m-510 -34 c0 -6 -4 -7 -10 -4 -5 3 -10 11 -10 16 0 6 5 7 10 4 6 -3 10
-11 10 -16z m-28 -43 c7 -13 7 -16 -1 -12 -6 4 -18 22 -27 39 -14 30 -14 31 1
12 9 -11 21 -28 27 -39z m147 24 c11 -24 11 -24 -3 -6 -9 11 -16 24 -16 30 0
12 5 7 19 -24z m140 6 c-2 -2 -15 -6 -29 -10 -25 -6 -25 -6 -2 5 12 7 22 17
23 23 0 6 3 5 6 -2 3 -7 3 -15 2 -16z m35 -10 c-3 -9 -10 -13 -15 -10 -5 3 -9
-14 -9 -38 0 -24 -5 -50 -11 -58 -8 -12 -9 -10 -4 8 7 25 -2 27 -39 11 -21
-10 -23 -15 -15 -31 7 -14 16 -17 32 -12 22 6 22 6 2 -10 -22 -17 -37 -21 -33
-8 2 4 -9 23 -25 43 -15 20 -27 40 -27 45 0 4 7 -2 16 -14 l15 -22 40 20 c27
14 39 27 39 42 0 12 7 30 17 40 19 21 26 18 17 -6z m251 -31 c101 -67 113 -79
78 -82 -15 0 -21 2 -14 6 7 5 3 14 -14 29 -31 27 -54 30 -34 5 13 -16 12 -17
-3 -4 -10 7 -15 17 -13 22 3 4 -18 24 -47 44 -29 19 -49 35 -44 35 5 0 46 -25
91 -55z m1380 46 c12 -5 26 -4 35 3 10 8 9 4 -3 -14 -19 -27 -23 -60 -7 -60 6
0 10 6 11 13 0 6 5 1 10 -12 11 -29 1 -100 -12 -79 -5 7 -9 9 -9 3 0 -5 -3
-21 -6 -35 -4 -18 -3 -21 4 -11 8 10 14 11 28 1 15 -9 16 -10 2 -6 -11 3 -19
-2 -23 -14 -8 -24 -41 -19 -37 6 2 11 6 34 9 52 4 23 10 32 19 28 8 -3 14 -1
14 4 0 6 -4 10 -10 10 -5 0 -10 8 -10 17 0 31 -14 2 -22 -45 -6 -40 -6 -36 -4
23 3 67 2 72 -22 83 -27 12 -53 1 -51 -22 0 -7 2 -6 6 2 2 6 13 12 24 12 16 0
19 -8 21 -52 1 -29 1 -63 0 -76 0 -12 3 -20 9 -17 14 9 11 -7 -6 -25 -13 -14
-12 -20 12 -56 14 -21 39 -53 56 -71 l30 -32 -31 -30 c-23 -23 -40 -31 -66
-31 -40 0 -43 6 -49 95 -2 28 -3 18 -3 -22 1 -65 -1 -70 -17 -62 -9 6 -29 28
-43 49 -22 32 -26 48 -21 81 3 23 13 46 24 54 27 20 29 -2 3 -38 l-23 -32 26
23 c14 13 28 35 31 48 4 15 11 21 21 18 13 -5 13 -2 0 23 -19 38 -32 105 -16
83 9 -12 11 -9 11 14 0 24 -2 27 -15 16 -8 -7 -15 -21 -15 -32 0 -10 -4 -17
-8 -14 -7 4 -8 31 -3 72 0 6 12 23 26 38 25 27 60 33 100 17z m130 -4 c29 -12
30 -13 24 -67 l-6 -55 -1 51 c-2 46 -5 52 -34 67 -38 18 -27 21 17 4z m-2009
-63 c53 -73 55 -74 74 -64 10 6 25 10 32 9 10 0 10 -2 -1 -6 -11 -5 -11 -7 0
-15 9 -5 5 -6 -13 -2 -31 7 -37 -6 -13 -26 9 -7 26 -10 42 -6 21 5 24 4 13 -4
-45 -30 -135 3 -171 65 -20 34 -21 34 -47 18 -51 -31 -75 -58 -97 -108 -29
-63 -51 -92 -61 -82 -5 4 -3 11 4 15 6 5 25 36 42 69 31 61 88 123 115 123 7
0 16 6 19 13 5 10 7 10 12 0 9 -20 36 -16 32 5 -2 9 -9 16 -15 15 -7 -2 -11 7
-10 18 1 22 -2 25 43 -37z m144 36 c-8 -5 -19 -10 -25 -10 -5 0 -3 5 5 10 8 5
20 10 25 10 6 0 3 -5 -5 -10z m60 -13 c0 -29 -53 -55 -75 -37 -22 19 -19 26
23 43 50 20 52 20 52 -6z m1779 12 c32 -11 42 -29 16 -29 -8 0 -23 -9 -32 -20
-18 -20 -18 -20 -29 12 -6 18 -17 32 -24 30 -6 -1 -9 2 -5 8 8 13 34 13 74 -1z
m162 1 c20 -11 24 -49 9 -85 -6 -13 -7 -3 -3 28 5 38 3 47 -10 47 -9 0 -18
-10 -20 -22 -4 -20 -4 -20 -6 4 -1 19 -7 28 -23 31 -19 4 -18 4 5 6 16 0 37
-4 48 -9z m-2041 -26 c0 -12 -3 -14 -13 -6 -8 7 -18 7 -27 2 -8 -6 -22 -10
-30 -9 -17 0 38 27 58 28 6 1 12 -6 12 -15z m386 -36 c42 -29 85 -61 97 -71
20 -16 20 -16 2 -10 -18 6 -19 5 -5 -13 14 -18 14 -18 -2 -5 -10 7 -16 17 -13
21 8 13 -126 102 -143 95 -9 -3 -13 -3 -9 1 4 4 2 13 -4 21 -21 25 3 13 77
-39z m1592 36 c24 -7 31 -34 8 -34 -25 0 -46 12 -46 26 0 16 5 16 38 8z
m-1987 -30 c10 -13 10 -17 -2 -25 -21 -13 -35 -11 -50 7 -10 13 -10 17 2 25
21 13 35 11 50 -7z m170 -11 c-12 -20 -14 -14 -5 12 4 9 9 14 11 11 3 -2 0
-13 -6 -23z m1749 6 c0 -34 -22 -109 -32 -109 -21 0 -48 22 -48 38 0 25 48 92
65 92 8 0 15 -9 15 -21z m-1570 -18 c14 -9 27 -18 30 -21 3 -3 29 -23 58 -44
51 -37 98 -104 89 -129 -2 -7 -9 4 -16 24 -17 51 -63 93 -207 186 -18 12 -18
12 1 6 11 -4 31 -13 45 -22z m1962 -54 c-46 -15 -88 -25 -93 -20 -23 24 -10
36 71 68 l85 33 11 -26 c11 -26 11 -26 -74 -55z m-318 63 c8 0 11 -13 9 -37
-2 -33 -1 -34 6 -13 8 23 9 23 10 3 1 -29 -9 -54 -20 -47 -5 3 -9 0 -9 -6 0
-6 -10 -15 -22 -20 -20 -7 -17 -8 14 -8 34 1 39 4 52 42 8 23 15 33 15 23 2
-33 -30 -92 -72 -134 -36 -38 -47 -43 -85 -43 -35 0 -49 6 -73 29 -16 16 -29
37 -29 46 0 14 4 14 26 -4 37 -29 60 -27 69 6 5 21 8 24 16 12 5 -8 9 -9 9 -2
0 6 8 14 18 16 13 4 11 5 -5 6 -27 1 -27 3 -8 61 15 44 15 44 10 8 -9 -58 2
-45 15 18 9 42 15 54 27 50 8 -3 20 -6 27 -6z m-2127 -38 c11 -15 38 -40 60
-55 22 -15 61 -48 87 -72 37 -36 52 -44 76 -41 17 2 38 10 48 18 9 8 29 19 45
26 19 8 27 19 27 36 0 19 7 26 30 31 24 5 32 14 41 46 7 21 15 39 19 39 9 0
140 -93 166 -118 25 -23 64 -144 64 -194 0 -27 -7 -38 -39 -60 -40 -28 -51
-28 -51 3 0 23 -44 115 -70 149 -26 34 -26 6 1 -31 l21 -29 -26 11 c-32 15
-56 66 -63 135 -6 57 -23 75 -23 23 0 -82 33 -144 101 -192 15 -10 31 -35 37
-55 7 -21 23 -49 37 -62 14 -13 25 -27 25 -32 0 -5 11 -26 25 -46 29 -43 30
-51 10 -78 -13 -16 -14 -16 -9 -1 3 9 2 17 -4 17 -5 0 -29 -45 -52 -100 -59
-139 -106 -184 -160 -150 -9 5 -19 5 -26 -1 -7 -6 -29 17 -70 74 -64 90 -123
165 -168 212 -56 60 -116 233 -136 394 l-9 66 2 -82 2 -82 -42 47 c-23 26 -45
55 -48 65 -7 18 -25 24 -25 7 0 -5 20 -34 45 -65 l46 -56 -18 -30 c-21 -35
-46 -33 -103 8 -54 40 -63 54 -46 72 8 9 26 42 41 74 27 56 74 107 99 107 7 0
21 -12 33 -28z m273 -21 c-29 -42 -36 -39 -8 3 13 19 24 33 26 31 3 -2 -6 -18
-18 -34z m572 -53 c-2 -40 0 -88 4 -106 7 -24 9 -7 9 67 0 55 3 102 7 106 4 4
18 1 30 -7 13 -9 39 -19 58 -22 19 -4 42 -9 51 -12 13 -3 19 -31 29 -138 7
-73 11 -147 8 -164 -5 -32 -4 -32 41 -32 25 0 57 -3 70 -7 l24 -6 -7 -144 c-5
-121 -4 -143 8 -143 38 0 68 -92 107 -332 11 -68 11 -79 -5 -103 -27 -40 -59
-31 -67 21 -22 129 -105 312 -181 402 -29 34 -44 80 -74 224 l-18 87 -22 -39
c-12 -22 -34 -54 -48 -73 l-26 -34 25 -13 c30 -16 52 -61 81 -165 12 -44 31
-101 40 -126 15 -39 16 -51 6 -74 -10 -22 -18 -26 -37 -22 -20 3 -23 2 -14 -9
20 -24 0 -83 -42 -129 -21 -23 -39 -48 -39 -54 0 -8 -11 -11 -27 -9 -35 4 -33
31 7 73 34 36 50 67 50 94 0 11 7 27 16 36 15 15 15 19 0 59 -9 24 -31 67 -49
97 -18 30 -49 86 -68 124 -30 57 -35 74 -26 93 7 15 7 29 -2 45 l-11 22 6 -22
c3 -13 2 -33 -2 -45 l-7 -22 -18 23 c-23 28 -24 71 -5 154 8 34 18 75 21 92 6
25 8 27 16 13 5 -9 24 -27 42 -38 l32 -22 -31 29 c-57 53 -59 58 -36 106 12
23 33 81 47 130 14 48 27 87 29 87 2 0 1 -33 -2 -72z m629 26 c75 -17 112 -34
72 -34 -12 0 -41 -8 -65 -18 -33 -14 -51 -17 -77 -10 -18 5 -35 7 -38 4 -3 -3
9 -9 27 -13 l33 -9 -72 -52 c-39 -29 -73 -52 -74 -52 -2 0 -1 16 1 35 2 20 -1
56 -7 81 -19 73 -11 84 63 84 35 0 97 -7 137 -16z m-247 -17 c14 -56 16 -136
6 -182 -7 -27 -14 -73 -17 -101 l-5 -52 -29 11 -29 11 0 117 c0 64 -3 137 -6
162 -6 42 -5 46 17 50 48 9 57 7 63 -16z m-150 -79 c9 -137 8 -228 -5 -228 -6
0 -9 24 -8 63 1 34 -2 106 -6 160 -5 62 -4 97 2 97 6 0 13 -41 17 -92z m43 5
c6 -49 8 -122 4 -163 l-6 -75 -7 110 c-4 61 -10 134 -14 163 -4 31 -3 52 3 52
5 0 14 -39 20 -87z m-379 9 c2 -50 -1 -70 -17 -95 -24 -38 -27 -31 -35 81 l-5
83 27 -3 c26 -3 27 -6 30 -66z m1272 58 c8 -5 10 -10 4 -10 -6 0 -10 -10 -10
-22 1 -17 -5 -24 -23 -26 -30 -5 -42 8 -34 36 4 17 10 21 25 16 14 -4 18 -2
14 5 -9 14 4 14 24 1z m-330 -20 c-14 -4 -36 -8 -50 -8 l-25 0 25 8 c14 4 36
8 50 8 l25 0 -25 -8z m-125 -20 c-27 -12 -43 -12 -25 0 8 5 22 9 30 9 10 0 8
-3 -5 -9z m125 -60 c0 -22 6 -55 14 -74 18 -42 81 -94 126 -102 19 -4 38 -12
42 -17 11 -18 89 12 126 49 40 40 45 41 61 11 7 -13 60 -68 118 -123 58 -54
131 -127 161 -162 l56 -63 -42 -42 -41 -41 -29 21 c-59 44 -204 67 -257 42
-19 -9 -18 -9 3 -5 12 2 22 2 22 0 0 -3 -13 -30 -29 -62 -35 -70 -81 -196 -81
-223 0 -38 -17 -10 -35 58 -21 79 -39 118 -69 152 l-21 24 50 -6 c28 -3 66 -9
85 -12 32 -5 33 -5 10 6 -14 6 -61 13 -105 16 -84 5 -152 29 -171 61 -5 9 -18
44 -28 77 -28 93 -47 127 -95 163 -40 30 -49 33 -89 27 -24 -4 -69 -20 -100
-36 -77 -40 -122 -24 -122 43 1 29 12 42 102 118 55 47 108 89 117 94 44 26
112 44 164 45 l57 1 0 -40z m500 20 c0 -11 -7 -20 -15 -20 -18 0 -19 12 -3 28
16 16 18 15 18 -8z m-2289 -106 c36 -18 36 -26 1 -65 -26 -30 -28 -30 -57 -15
-33 17 -55 20 -55 8 0 -5 17 -13 37 -18 31 -8 49 -25 114 -109 70 -92 79 -101
121 -110 49 -11 135 -75 124 -93 -7 -12 -48 1 -77 25 -33 28 -47 9 -70 -98 -8
-41 -9 -61 0 -77 13 -24 15 -62 3 -62 -19 0 -42 73 -42 133 0 95 -5 103 -84
149 -105 61 -154 104 -181 158 -25 49 -25 50 -10 121 9 40 24 92 35 116 l20
45 46 -46 c25 -26 59 -53 75 -62z m1438 14 c-2 -2 -19 -16 -37 -32 -21 -19
-32 -25 -32 -15 0 14 61 60 69 53 2 -2 2 -5 0 -6z m798 -68 c47 -44 89 -80 94
-80 4 0 24 -24 45 -52 21 -29 64 -80 96 -112 32 -33 57 -61 54 -63 -3 -3 -295
284 -360 355 -55 59 -15 33 71 -48z m-2088 -35 c18 -47 48 -107 67 -135 46
-67 46 -82 -3 -64 -21 7 -45 13 -54 14 -33 1 -144 149 -134 180 7 21 72 90 85
90 4 0 22 -38 39 -85z m635 -37 c3 -29 6 -66 6 -82 0 -25 -2 -27 -16 -15 -8 7
-26 33 -38 58 l-23 44 26 23 c14 13 29 24 32 24 3 0 9 -24 13 -52z m581 -115
c-19 -13 -36 -23 -39 -23 -12 0 -6 79 7 83 6 2 24 -5 39 -16 l28 -20 -35 -24z
m195 9 c0 -35 -75 -210 -85 -200 -7 7 -48 116 -54 143 -7 28 -4 31 33 46 44
18 106 24 106 11z m-520 -47 c0 -18 -1 -18 -16 3 -8 12 -12 27 -8 33 8 14 24
-8 24 -36z m374 -75 c16 -45 26 -83 25 -85 -2 -2 -20 -6 -39 -10 -31 -5 -39
-2 -68 28 -30 31 -32 37 -26 76 5 33 14 47 37 62 17 10 34 16 37 14 4 -2 19
-41 34 -85z m-683 13 c-12 -20 -14 -14 -5 12 4 9 9 14 11 11 3 -2 0 -13 -6
-23z m-427 1 c5 -14 4 -15 -9 -4 -17 14 -19 20 -6 20 5 0 12 -7 15 -16z m506
-4 c-12 -8 -12 -10 -1 -10 8 0 12 -3 8 -6 -9 -9 -28 6 -22 17 4 5 12 9 18 9 7
0 6 -4 -3 -10z m-44 -34 c3 -19 12 -37 20 -40 22 -8 17 -23 -10 -30 -53 -13
-34 -78 26 -90 l32 -6 -63 -63 c-39 -38 -65 -57 -68 -49 -3 6 -9 12 -15 12 -6
0 -5 -6 2 -15 8 -9 11 -30 7 -55 -6 -48 -46 -132 -65 -138 -11 -3 -11 1 1 24
8 16 17 43 21 59 3 17 -6 4 -23 -31 -27 -59 -46 -82 -58 -71 -3 3 3 26 12 51
9 24 15 50 13 58 -3 7 -12 -12 -21 -43 -19 -66 -38 -87 -56 -65 -10 12 -7 25
13 66 29 57 31 64 16 55 -5 -3 -20 -28 -31 -56 -12 -27 -28 -49 -35 -49 -18 0
-18 22 -1 63 8 18 17 46 20 62 l7 30 -15 -27 c-9 -15 -29 -35 -45 -43 -33 -17
-80 -20 -80 -5 0 6 4 10 8 10 5 0 31 20 60 44 28 24 66 48 84 51 18 4 45 16
60 26 41 30 104 131 135 219 15 44 31 80 35 80 4 0 10 -15 14 -34z m-61 -35
c-18 -36 -29 -41 -16 -8 5 12 13 31 16 42 4 11 9 15 12 8 2 -6 -3 -25 -12 -42z
m1884 7 c16 -24 44 -57 62 -74 29 -29 31 -34 21 -64 -13 -37 -65 -105 -107
-140 -16 -14 -63 -53 -103 -88 -40 -35 -76 -61 -81 -58 -5 3 -11 -18 -13 -46
-5 -44 -11 -57 -42 -85 -42 -38 -58 -40 -120 -13 -52 22 -57 40 -23 74 37 38
54 63 23 36 l-28 -25 7 30 c9 37 28 53 74 61 25 5 48 20 76 52 54 61 124 155
125 166 0 17 60 66 82 67 16 1 18 3 6 6 -9 2 -26 0 -36 -6 -16 -8 -26 -6 -46
10 -14 11 -26 25 -26 30 0 15 91 109 106 109 7 0 26 -19 43 -42z m-1739 21 c0
-5 -11 -9 -25 -9 -33 0 -33 15 0 16 14 1 25 -2 25 -7z m-480 -42 c19 -22 26
-44 31 -98 4 -51 13 -79 29 -102 l23 -31 -43 -38 -43 -39 -28 47 -27 47 19 31
c21 34 25 66 9 66 -5 0 -10 -11 -10 -24 0 -14 -7 -32 -16 -41 -25 -25 -34 -3
-34 87 0 68 2 77 20 83 11 3 23 18 26 31 4 14 9 22 13 17 3 -4 17 -21 31 -36z
m493 16 c-7 -2 -21 -2 -30 0 -10 3 -4 5 12 5 17 0 24 -2 18 -5z m-625 -37 c2
-9 -3 -16 -10 -16 -17 0 -38 20 -38 37 0 18 44 0 48 -21z m-39 -54 c-12 -5
-39 17 -39 30 0 5 11 1 24 -9 13 -10 20 -20 15 -21z m1261 29 c0 -5 -15 -23
-32 -40 l-33 -32 -8 26 c-11 31 -8 35 35 45 18 4 34 8 36 9 1 1 2 -3 2 -8z
m-1265 -69 c-2 -3 -11 1 -20 8 -9 7 -15 8 -15 2 0 -6 12 -20 28 -31 18 -14 22
-20 11 -21 -25 0 -52 35 -44 60 6 20 8 21 26 4 11 -9 17 -19 14 -22z m271 -32
c3 -14 9 -35 14 -47 14 -33 -13 -30 -39 3 -15 19 -21 41 -21 73 l0 46 20 -25
c11 -14 23 -36 26 -50z m68 31 c15 -6 37 -6 55 -1 18 5 31 5 31 0 0 -15 -45
-41 -84 -47 -35 -5 -36 -5 -36 26 0 35 -1 35 34 22z m366 4 c0 -23 -88 -175
-102 -175 -10 0 84 180 95 180 4 0 7 -2 7 -5z m-1702 -47 c8 -10 0 -12 -39
-10 -27 2 -46 8 -43 13 8 13 70 11 82 -3z m1590 -58 c-18 -33 -36 -60 -41 -60
-7 0 16 46 47 93 31 47 28 30 -6 -33z m-1561 26 c1 0 4 -12 8 -26 7 -30 -26
-80 -53 -80 -26 1 -112 87 -105 106 5 13 17 15 77 9 39 -4 72 -8 73 -9z m2279
-73 c44 -31 95 -71 114 -89 19 -18 64 -47 100 -63 54 -25 79 -31 145 -32 44
-1 97 2 118 6 l37 7 0 -50 c0 -28 -6 -57 -13 -64 -7 -7 -32 -39 -55 -72 -43
-61 -100 -109 -141 -119 -17 -4 -37 3 -67 24 -23 16 -49 29 -56 29 -7 -1 3
-10 24 -20 44 -24 98 -87 98 -115 0 -22 -80 -111 -197 -219 -59 -54 -78 -66
-106 -66 -41 0 -57 15 -58 55 l-1 30 -7 -30 -6 -30 -18 45 c-25 65 -23 132 5
156 21 19 21 19 14 -1 -12 -32 -20 -125 -10 -125 5 0 9 22 10 48 1 50 24 123
57 179 10 17 26 59 35 92 13 47 25 66 52 86 18 14 29 25 23 25 -7 0 -18 -6
-25 -13 -21 -21 -100 -77 -109 -77 -5 0 -13 9 -20 21 -9 18 -6 26 30 62 30 29
41 48 41 70 0 38 -28 96 -59 124 -41 36 -16 38 29 3 43 -34 90 -96 109 -145
l11 -30 -5 30 c-9 47 -63 118 -122 161 -30 21 -56 48 -58 59 -11 58 -14 105
-6 105 5 0 44 -25 87 -57z m-2383 -8 c41 -39 44 -45 21 -45 -18 0 -74 53 -74
69 0 18 13 12 53 -24z m-7 -47 c20 -9 36 -34 61 -91 18 -44 33 -81 33 -83 0
-15 -64 1 -96 25 -94 68 -124 149 -76 204 14 16 16 15 33 -12 10 -16 30 -35
45 -43z m212 21 l72 -22 0 -42 c0 -39 -2 -43 -30 -48 -16 -4 -49 -16 -72 -27
-23 -11 -43 -20 -44 -20 -1 0 -16 30 -33 66 l-31 65 28 24 c15 14 29 25 32 25
3 0 38 -10 78 -21z m610 -59 c22 0 32 -5 32 -15 0 -13 -21 -15 -130 -15 -126
0 -130 1 -130 22 0 20 2 21 98 15 53 -4 112 -7 130 -7z m828 -62 c38 -30 80
-73 101 -104 16 -25 16 -26 -38 -75 -30 -28 -98 -79 -151 -115 -53 -35 -99
-68 -102 -73 -3 -4 -26 -5 -50 -1 -25 4 -43 4 -41 0 3 -4 22 -10 44 -14 34 -5
42 -12 59 -48 41 -87 43 -83 -55 -102 -49 -10 -98 -20 -110 -23 -18 -4 -25 1
-33 21 -22 60 -23 74 -1 81 26 8 51 54 51 94 0 35 -19 81 -33 81 -5 0 -4 -7 4
-16 7 -8 13 -38 13 -66 1 -40 -3 -53 -22 -68 -13 -11 -29 -17 -36 -14 -18 7
-56 86 -56 116 0 56 47 140 147 266 31 38 36 40 50 27 16 -16 78 -12 98 6 5 5
15 9 22 9 8 0 23 9 35 20 29 26 67 25 104 -2z m-1446 -38 c-8 -5 -19 -10 -25
-10 -5 0 -3 5 5 10 8 5 20 10 25 10 6 0 3 -5 -5 -10z m2050 -30 c0 -11 -11
-38 -25 -60 -14 -23 -28 -53 -31 -69 -6 -29 -38 -51 -74 -51 -30 0 -24 30 14
70 18 19 41 56 51 83 14 38 22 47 41 47 17 0 24 -6 24 -20z m-105 -10 c8 -13
-11 -47 -51 -93 -36 -39 -44 -81 -21 -108 15 -19 63 -49 77 -49 23 0 98 43
132 75 31 30 37 33 42 18 5 -13 -21 -44 -106 -125 -62 -59 -127 -114 -144
-122 -42 -21 -49 -32 -64 -96 -15 -67 -39 -108 -105 -180 -27 -30 -60 -68 -72
-83 -22 -28 -23 -28 -55 -12 -63 30 -73 42 -59 71 6 14 21 60 32 102 21 82 60
148 129 222 43 45 43 45 24 -20 -6 -22 11 -60 28 -60 7 0 6 5 -2 15 -8 10 -10
29 -6 58 4 23 8 49 10 59 1 9 7 22 13 30 5 7 13 29 17 48 3 19 31 86 62 148
51 104 57 112 84 112 16 0 32 -4 35 -10z m-215 -29 c0 -24 20 -41 47 -41 23 0
31 -18 14 -35 -6 -6 -25 -49 -43 -96 -18 -47 -41 -96 -50 -110 l-17 -24 -55
57 c-59 61 -91 112 -81 128 15 25 167 150 175 145 6 -4 10 -14 10 -24z m-1853
3 c-3 -3 -12 -4 -19 -1 -8 3 -5 6 6 6 11 1 17 -2 13 -5z m1639 -182 c17 -15
58 -56 89 -91 54 -60 57 -65 40 -78 -11 -7 -38 -13 -62 -13 -40 0 -44 3 -63
39 -11 22 -29 42 -40 46 -11 3 -22 18 -26 33 -3 15 -7 36 -9 46 -5 22 11 46
29 46 6 0 25 -13 42 -28z m655 -14 c-10 -26 -21 -31 -41 -18 -13 9 -12 13 9
30 28 24 43 18 32 -12z m-746 -66 c9 -45 -32 -102 -74 -102 -24 0 -31 6 -45
41 -19 47 -20 45 49 87 54 33 57 32 70 -26z m1227 23 c5 -22 2 -25 -23 -25
-34 0 -34 2 -13 35 19 29 30 26 36 -10z m-531 -5 c6 0 7 -4 4 -10 -3 -5 -14
-10 -24 -10 -10 0 -30 -9 -44 -20 -43 -34 -54 -22 -12 15 22 19 46 32 53 30 8
-3 18 -5 23 -5z m19 -50 c0 -6 -12 -15 -26 -20 -36 -14 -63 -50 -64 -84 0 -17
-9 -35 -23 -46 -33 -26 -77 -112 -80 -157 -2 -33 1 -38 20 -41 16 -2 39 12 78
49 65 61 72 52 15 -20 -43 -54 -107 -94 -143 -89 -20 3 -22 8 -21 73 2 83 22
129 89 205 25 28 45 55 45 60 0 5 16 25 37 45 34 33 73 47 73 25z m-659 -31
l21 -21 -44 -23 c-25 -13 -64 -26 -86 -30 -35 -6 -42 -4 -42 9 0 11 9 16 26
16 18 0 37 12 58 35 36 41 39 42 67 14z m72 -642 c-4 -22 -18 -34 -62 -56 -31
-15 -74 -40 -95 -54 -29 -20 -51 -27 -88 -27 -127 0 -181 117 -66 145 24 6 26
5 21 -16 -9 -34 18 -49 70 -37 55 12 119 41 135 61 8 9 20 13 27 11 8 -3 22
-1 32 5 24 13 33 2 26 -32z"/>
<path d="M2922 4968 c5 -15 58 -24 58 -10 0 11 -24 22 -47 22 -8 0 -13 -6 -11
-12z"/>
<path d="M2027 4604 c-7 -7 29 -102 46 -123 10 -11 13 -9 18 10 4 13 7 41 8
61 1 30 5 37 24 41 16 3 14 5 -9 6 l-32 1 4 -47 c3 -51 -1 -43 -11 20 -4 27
-11 37 -24 37 -10 0 -20 -3 -24 -6z m37 -30 c3 -9 6 -25 6 -37 -1 -17 -2 -19
-9 -7 -16 27 -22 60 -13 60 6 0 13 -7 16 -16z"/>
<path d="M2699 4523 c15 -30 28 -36 48 -23 17 11 17 11 0 6 -12 -4 -26 2 -38
16 -20 23 -20 23 -10 1z"/>
<path d="M3220 4443 c0 -4 5 -15 10 -23 8 -13 10 -13 10 2 0 9 -4 20 -10 23
-5 3 -10 3 -10 -2z"/>
<path d="M2376 3533 c-6 -14 -5 -15 5 -6 7 7 10 15 7 18 -3 3 -9 -2 -12 -12z"/>
<path d="M1590 3731 c0 -11 39 -26 47 -17 8 8 3 12 -24 20 -13 4 -23 3 -23 -3z"/>
<path d="M2941 3838 c-1 -20 -7 -39 -13 -41 -7 -3 -3 -6 10 -6 24 -1 27 13 12
59 -7 23 -8 21 -9 -12z"/>
<path d="M2728 3763 c6 -2 12 -16 12 -29 0 -13 4 -24 8 -24 10 0 9 30 -2 48
-4 6 -13 12 -19 11 -9 0 -9 -2 1 -6z"/>
<path d="M2470 3396 c0 -18 61 -66 83 -66 24 0 21 17 -5 31 -13 7 -29 20 -36
31 -16 22 -42 24 -42 4z"/>
<path d="M2408 3163 c12 -2 30 -2 40 0 9 3 -1 5 -23 4 -22 0 -30 -2 -17 -4z"/>
<path d="M3235 2977 c-25 -16 -45 -34 -45 -42 0 -4 12 3 26 14 15 12 33 21 40
21 7 0 16 5 19 10 8 13 -15 12 -40 -3z"/>
<path d="M1696 3105 c-11 -8 -18 -17 -15 -19 2 -3 15 4 29 14 14 11 21 20 15
19 -5 0 -19 -6 -29 -14z"/>
<path d="M2245 2950 c10 -11 20 -20 23 -20 3 0 -3 9 -13 20 -10 11 -20 20 -23
20 -3 0 3 -9 13 -20z"/>
<path d="M2301 2854 c0 -11 3 -14 6 -6 3 7 2 16 -1 19 -3 4 -6 -2 -5 -13z"/>
<path d="M2268 2823 c6 -2 18 -2 25 0 6 3 1 5 -13 5 -14 0 -19 -2 -12 -5z"/>
<path d="M1390 2935 c-7 -8 -8 -15 -2 -15 5 0 15 7 22 15 7 8 8 15 2 15 -5 0
-15 -7 -22 -15z"/>
<path d="M3140 2586 c0 -7 6 -18 13 -24 10 -8 13 -6 14 8 1 10 -5 21 -13 24
-8 3 -14 -1 -14 -8z"/>
<path d="M1310 2645 c0 -10 32 -55 39 -55 3 0 13 4 21 10 12 7 12 12 -4 29
-17 19 -56 29 -56 16z m44 -21 c4 -10 1 -14 -6 -12 -15 5 -23 28 -10 28 5 0
13 -7 16 -16z"/>
<path d="M1370 2580 c0 -5 4 -10 9 -10 5 0 18 -3 28 -7 16 -6 16 -5 4 10 -15
19 -41 23 -41 7z"/>
<path d="M3358 2523 c7 -3 16 -2 19 1 4 3 -2 6 -13 5 -11 0 -14 -3 -6 -6z"/>
<path d="M3405 2490 c3 -5 8 -10 11 -10 2 0 4 5 4 10 0 6 -5 10 -11 10 -5 0
-7 -4 -4 -10z"/>
<path d="M3437 2493 c-4 -3 -7 -11 -7 -17 0 -6 5 -5 12 2 6 6 9 14 7 17 -3 3
-9 2 -12 -2z"/>
<path d="M3330 2454 c0 -21 71 -16 78 6 5 13 3 13 -12 1 -13 -11 -20 -11 -28
-3 -17 17 -38 15 -38 -4z"/>
<path d="M3260 2442 c0 -20 79 -39 109 -26 11 5 2 10 -29 14 -25 4 -53 10 -62
15 -11 4 -18 3 -18 -3z"/>
<path d="M1600 2223 c-60 -20 -120 -47 -120 -54 0 -13 6 -11 52 12 78 40 220
37 326 -7 6 -3 12 -1 12 4 0 19 -122 52 -189 51 -36 0 -73 -3 -81 -6z"/>
<path d="M2200 2361 c0 -6 4 -13 10 -16 6 -3 7 1 4 9 -7 18 -14 21 -14 7z"/>
<path d="M2227 2275 c3 -22 7 -42 9 -44 8 -9 2 45 -6 64 -7 14 -8 8 -3 -20z"/>
<path d="M2158 2243 c7 -3 16 -2 19 1 4 3 -2 6 -13 5 -11 0 -14 -3 -6 -6z"/>
<path d="M2198 2233 c7 -3 16 -2 19 1 4 3 -2 6 -13 5 -11 0 -14 -3 -6 -6z"/>
<path d="M2275 2210 c-25 -11 1 -11 35 0 20 6 21 8 5 8 -11 0 -29 -3 -40 -8z"/>
<path d="M2365 1955 c4 -11 11 -33 15 -50 6 -24 9 -27 15 -13 4 12 -1 29 -15
50 -12 18 -19 24 -15 13z"/>
<path d="M2210 1820 c-8 -5 -10 -10 -5 -10 6 0 17 5 25 10 8 5 11 10 5 10 -5
0 -17 -5 -25 -10z"/>
<path d="M2519 1613 c-13 -15 -12 -15 11 -3 34 17 36 20 18 20 -9 0 -22 -7
-29 -17z"/>
<path d="M2860 2385 c0 -32 3 -56 6 -52 3 3 6 26 6 52 0 26 -3 49 -6 53 -3 3
-6 -21 -6 -53z"/>
<path d="M2837 2288 c-10 -17 -16 -33 -13 -35 2 -3 12 9 21 27 21 41 15 48 -8
8z"/>
<path d="M3290 2021 c8 -5 33 -12 55 -15 27 -4 34 -4 20 3 -31 13 -93 24 -75
12z"/>
<path d="M3400 1990 c8 -5 22 -10 30 -10 13 0 13 1 0 10 -8 5 -22 10 -30 10
-13 0 -13 -1 0 -10z"/>
<path d="M3455 1970 c3 -5 14 -10 23 -10 15 0 15 2 2 10 -20 13 -33 13 -25 0z"/>
<path d="M2948 1403 c12 -2 30 -2 40 0 9 3 -1 5 -23 4 -22 0 -30 -2 -17 -4z"/>
<path d="M2850 1390 c-13 -9 -13 -10 0 -9 8 1 26 5 40 9 l25 8 -25 1 c-14 0
-32 -4 -40 -9z"/>
<path d="M3043 1389 c20 -5 56 -18 80 -29 39 -20 41 -20 18 -2 -27 22 -87 43
-117 41 -11 -1 -2 -5 19 -10z"/>
<path d="M2760 1240 c-18 -6 -4 -8 45 -8 49 0 63 2 45 8 -14 4 -34 8 -45 8
-11 0 -31 -4 -45 -8z"/>
<path d="M2310 989 c-24 -16 -38 -29 -30 -29 16 0 80 42 80 53 0 9 2 10 -50
-24z"/>
<path d="M1550 4733 c-8 -3 -27 -17 -42 -31 -40 -37 -39 -93 1 -133 24 -24 38
-29 76 -29 38 0 52 5 76 29 75 75 -10 201 -111 164z m45 -38 c-16 -8 -38 -14
-49 -15 -15 0 -16 3 -6 15 7 9 28 15 49 14 l36 -1 -30 -13z m55 -24 c23 -44 0
-88 -44 -84 -15 1 -16 0 -3 -3 27 -8 20 -24 -11 -24 -29 0 -72 24 -72 40 0 6
11 5 26 -1 15 -5 29 -7 32 -5 5 6 -42 26 -59 26 -5 0 -9 8 -9 18 0 13 14 23
48 34 64 22 79 21 92 -1z"/>
</g>
</svg>
